<svg width="53" height="20" viewBox="0 0 53 20" fill="none" xmlns="http://www.w3.org/2000/svg">
<rect width="53" height="20" rx="4" fill="url(#paint0_linear_2352_17472)"/>
<path d="M14.352 7.424C14.96 7.424 15.4853 7.53867 15.928 7.768C16.376 7.992 16.7173 8.31467 16.952 8.736C17.192 9.15733 17.312 9.65333 17.312 10.224C17.312 10.7947 17.192 11.2907 16.952 11.712C16.7173 12.128 16.376 12.448 15.928 12.672C15.4853 12.8907 14.96 13 14.352 13H12.616V7.424H14.352ZM14.352 12.4C15.072 12.4 15.6213 12.2107 16 11.832C16.3787 11.448 16.568 10.912 16.568 10.224C16.568 9.53067 16.376 8.98933 15.992 8.6C15.6133 8.21067 15.0667 8.016 14.352 8.016H13.344V12.4H14.352ZM22.2723 10.64C22.2723 10.7787 22.2643 10.9253 22.2483 11.08H18.7443C18.7709 11.512 18.9176 11.8507 19.1843 12.096C19.4563 12.336 19.7843 12.456 20.1683 12.456C20.4829 12.456 20.7443 12.384 20.9523 12.24C21.1656 12.0907 21.3149 11.8933 21.4003 11.648H22.1843C22.0669 12.0693 21.8323 12.4133 21.4803 12.68C21.1283 12.9413 20.6909 13.072 20.1683 13.072C19.7523 13.072 19.3789 12.9787 19.0483 12.792C18.7229 12.6053 18.4669 12.3413 18.2803 12C18.0936 11.6533 18.0003 11.2533 18.0003 10.8C18.0003 10.3467 18.0909 9.94933 18.2723 9.608C18.4536 9.26667 18.7069 9.00533 19.0323 8.824C19.3629 8.63733 19.7416 8.544 20.1683 8.544C20.5843 8.544 20.9523 8.63467 21.2723 8.816C21.5923 8.99733 21.8376 9.248 22.0083 9.568C22.1843 9.88267 22.2723 10.24 22.2723 10.64ZM21.5203 10.488C21.5203 10.2107 21.4589 9.97333 21.3363 9.776C21.2136 9.57333 21.0456 9.42133 20.8323 9.32C20.6243 9.21333 20.3923 9.16 20.1363 9.16C19.7683 9.16 19.4536 9.27733 19.1923 9.512C18.9363 9.74667 18.7896 10.072 18.7523 10.488H21.5203ZM25.0172 9.216H24.0972V13H23.3692V9.216H22.8012V8.616H23.3692V8.304C23.3692 7.81333 23.4945 7.456 23.7452 7.232C24.0012 7.00267 24.4092 6.888 24.9692 6.888V7.496C24.6492 7.496 24.4225 7.56 24.2892 7.688C24.1612 7.81067 24.0972 8.016 24.0972 8.304V8.616H25.0172V9.216ZM25.594 10.792C25.594 10.344 25.6847 9.952 25.866 9.616C26.0473 9.27467 26.2953 9.01067 26.61 8.824C26.93 8.63733 27.2847 8.544 27.674 8.544C28.058 8.544 28.3913 8.62667 28.674 8.792C28.9567 8.95733 29.1673 9.16533 29.306 9.416V8.616H30.042V13H29.306V12.184C29.162 12.44 28.946 12.6533 28.658 12.824C28.3753 12.9893 28.0447 13.072 27.666 13.072C27.2767 13.072 26.9247 12.976 26.61 12.784C26.2953 12.592 26.0473 12.3227 25.866 11.976C25.6847 11.6293 25.594 11.2347 25.594 10.792ZM29.306 10.8C29.306 10.4693 29.2393 10.1813 29.106 9.936C28.9727 9.69067 28.7913 9.504 28.562 9.376C28.338 9.24267 28.09 9.176 27.818 9.176C27.546 9.176 27.298 9.24 27.074 9.368C26.85 9.496 26.6713 9.68267 26.538 9.928C26.4047 10.1733 26.338 10.4613 26.338 10.792C26.338 11.128 26.4047 11.4213 26.538 11.672C26.6713 11.9173 26.85 12.1067 27.074 12.24C27.298 12.368 27.546 12.432 27.818 12.432C28.09 12.432 28.338 12.368 28.562 12.24C28.7913 12.1067 28.9727 11.9173 29.106 11.672C29.2393 11.4213 29.306 11.1307 29.306 10.8ZM35.1603 8.616V13H34.4323V12.352C34.2936 12.576 34.0989 12.752 33.8483 12.88C33.6029 13.0027 33.3309 13.064 33.0323 13.064C32.6909 13.064 32.3843 12.9947 32.1123 12.856C31.8403 12.712 31.6243 12.4987 31.4643 12.216C31.3096 11.9333 31.2323 11.5893 31.2323 11.184V8.616H31.9523V11.088C31.9523 11.52 32.0616 11.8533 32.2803 12.088C32.4989 12.3173 32.7976 12.432 33.1763 12.432C33.5656 12.432 33.8723 12.312 34.0963 12.072C34.3203 11.832 34.4323 11.4827 34.4323 11.024V8.616H35.1603ZM37.1174 7.08V13H36.3894V7.08H37.1174ZM39.2462 9.216V11.8C39.2462 12.0133 39.2915 12.1653 39.3822 12.256C39.4729 12.3413 39.6302 12.384 39.8542 12.384H40.3902V13H39.7342C39.3289 13 39.0249 12.9067 38.8222 12.72C38.6195 12.5333 38.5182 12.2267 38.5182 11.8V9.216H37.9502V8.616H38.5182V7.512H39.2462V8.616H40.3902V9.216H39.2462Z" fill="#FAFAFA"/>
<defs>
<linearGradient id="paint0_linear_2352_17472" x1="0" y1="10" x2="53" y2="10" gradientUnits="userSpaceOnUse">
<stop stop-color="#C2A1FD"/>
<stop offset="1" stop-color="#9154FD"/>
</linearGradient>
</defs>
</svg>
