<svg width="28" height="28" viewBox="0 0 28 28" fill="none" xmlns="http://www.w3.org/2000/svg">
<circle cx="14" cy="14" r="14" fill="white"/>
<path d="M12.2895 7.83867C12.4185 7.57568 12.6838 7.41162 12.9729 7.41162H15.8501C16.1393 7.41162 16.4045 7.57568 16.5336 7.83867L16.7057 8.18368H18.9998C19.4227 8.18368 19.7645 8.52869 19.7645 8.95574C19.7645 9.38278 19.4227 9.7278 18.9998 9.7278H9.8233C9.40032 9.7278 9.05859 9.38278 9.05859 8.95574C9.05859 8.52869 9.40032 8.18368 9.8233 8.18368H12.1174L12.2895 7.83867ZM9.8233 10.4999H18.9998V18.2204C18.9998 19.0721 18.3139 19.7646 17.4704 19.7646H11.3527C10.5091 19.7646 9.8233 19.0721 9.8233 18.2204V10.4999ZM12.1174 12.044C11.9071 12.044 11.7351 12.2177 11.7351 12.43V17.8344C11.7351 18.0467 11.9071 18.2204 12.1174 18.2204C12.3277 18.2204 12.4998 18.0467 12.4998 17.8344V12.43C12.4998 12.2177 12.3277 12.044 12.1174 12.044ZM14.4115 12.044C14.2012 12.044 14.0292 12.2177 14.0292 12.43V17.8344C14.0292 18.0467 14.2012 18.2204 14.4115 18.2204C14.6218 18.2204 14.7939 18.0467 14.7939 17.8344V12.43C14.7939 12.2177 14.6218 12.044 14.4115 12.044ZM16.7057 12.044C16.4954 12.044 16.3233 12.2177 16.3233 12.43V17.8344C16.3233 18.0467 16.4954 18.2204 16.7057 18.2204C16.9159 18.2204 17.088 18.0467 17.088 17.8344V12.43C17.088 12.2177 16.9159 12.044 16.7057 12.044Z" fill="#6C757D"/>
</svg>
