<svg width="38" height="36" viewBox="0 0 18 16" fill="none" xmlns="http://www.w3.org/2000/svg">
<path d="M4.05 14.3C1.81406 14.3 0 12.4859 0 10.25C0 8.4837 1.13062 6.98183 2.70562 6.42776C2.70281 6.35183 2.7 6.27589 2.7 6.19995C2.7 3.7137 4.71375 1.69995 7.2 1.69995C8.86781 1.69995 10.3219 2.60558 11.1009 3.95558C11.5284 3.6687 12.0459 3.49995 12.6 3.49995C14.0906 3.49995 15.3 4.70933 15.3 6.19995C15.3 6.54308 15.2353 6.86933 15.12 7.17308C16.7625 7.50495 18 8.95901 18 10.7C18 12.6884 16.3884 14.3 14.4 14.3H4.05ZM6.27187 9.60308L8.52187 11.8531C8.78625 12.1175 9.21375 12.1175 9.47531 11.8531L11.7253 9.60308C11.9897 9.3387 11.9897 8.9112 11.7253 8.64964C11.4609 8.38808 11.0334 8.38526 10.7719 8.64964L9.675 9.74651V5.97495C9.675 5.60089 9.37406 5.29995 9 5.29995C8.62594 5.29995 8.325 5.60089 8.325 5.97495V9.74651L7.22812 8.64964C6.96375 8.38526 6.53625 8.38526 6.27469 8.64964C6.01312 8.91401 6.01031 9.34151 6.27469 9.60308H6.27187Z" fill="#DB4444"/>
</svg>
