<svg width="20" height="22" viewBox="0 0 20 22" fill="none" xmlns="http://www.w3.org/2000/svg">
<g clip-path="url(#clip0_2351_16240)">
<path d="M2.75 1.375C1.2332 1.375 0 2.6082 0 4.125V17.875C0 19.3918 1.2332 20.625 2.75 20.625H16.5C18.0168 20.625 19.25 19.3918 19.25 17.875V4.125C19.25 2.6082 18.0168 1.375 16.5 1.375H2.75ZM8.59375 14.7812V12.0312H5.84375C5.27227 12.0312 4.8125 11.5715 4.8125 11C4.8125 10.4285 5.27227 9.96875 5.84375 9.96875H8.59375V7.21875C8.59375 6.64727 9.05352 6.1875 9.625 6.1875C10.1965 6.1875 10.6562 6.64727 10.6562 7.21875V9.96875H13.4062C13.9777 9.96875 14.4375 10.4285 14.4375 11C14.4375 11.5715 13.9777 12.0312 13.4062 12.0312H10.6562V14.7812C10.6562 15.3527 10.1965 15.8125 9.625 15.8125C9.05352 15.8125 8.59375 15.3527 8.59375 14.7812Z" fill="#DB4444"/>
</g>
<defs>
<clipPath id="clip0_2351_16240">
<rect width="19.25" height="22" fill="white"/>
</clipPath>
</defs>
</svg>
