<svg width="36" height="37" viewBox="0 0 36 37" fill="none" xmlns="http://www.w3.org/2000/svg">
<circle cx="18" cy="18.5" r="18" fill="#DB4444" fill-opacity="0.3"/>
<path d="M19.3846 10.8846C19.3846 10.1187 18.7659 9.5 18 9.5C17.2341 9.5 16.6154 10.1187 16.6154 10.8846V17.1154H10.3846C9.61875 17.1154 9 17.7341 9 18.5C9 19.2659 9.61875 19.8846 10.3846 19.8846H16.6154V26.1154C16.6154 26.8813 17.2341 27.5 18 27.5C18.7659 27.5 19.3846 26.8813 19.3846 26.1154V19.8846H25.6154C26.3813 19.8846 27 19.2659 27 18.5C27 17.7341 26.3813 17.1154 25.6154 17.1154H19.3846V10.8846Z" fill="#DB4444"/>
</svg>
