<svg width="20" height="20" viewBox="0 0 20 20" fill="none" xmlns="http://www.w3.org/2000/svg">
<path d="M6.69773 1.49173C6.89862 1.08623 7.31157 0.833252 7.76172 0.833252H12.2409C12.691 0.833252 13.104 1.08623 13.3049 1.49173L13.5727 2.02373H17.1442C17.8026 2.02373 18.3346 2.55572 18.3346 3.2142C18.3346 3.87269 17.8026 4.40468 17.1442 4.40468H2.85844C2.19996 4.40468 1.66797 3.87269 1.66797 3.2142C1.66797 2.55572 2.19996 2.02373 2.85844 2.02373H6.42987L6.69773 1.49173ZM2.85844 5.59516H17.1442V17.4999C17.1442 18.8132 16.0765 19.8809 14.7632 19.8809H5.2394C3.92615 19.8809 2.85844 18.8132 2.85844 17.4999V5.59516ZM6.42987 7.97611C6.10249 7.97611 5.83464 8.24397 5.83464 8.57135V16.9047C5.83464 17.2321 6.10249 17.4999 6.42987 17.4999C6.75725 17.4999 7.02511 17.2321 7.02511 16.9047V8.57135C7.02511 8.24397 6.75725 7.97611 6.42987 7.97611ZM10.0013 7.97611C9.67392 7.97611 9.40606 8.24397 9.40606 8.57135V16.9047C9.40606 17.2321 9.67392 17.4999 10.0013 17.4999C10.3287 17.4999 10.5965 17.2321 10.5965 16.9047V8.57135C10.5965 8.24397 10.3287 7.97611 10.0013 7.97611ZM13.5727 7.97611C13.2453 7.97611 12.9775 8.24397 12.9775 8.57135V16.9047C12.9775 17.2321 13.2453 17.4999 13.5727 17.4999C13.9001 17.4999 14.168 17.2321 14.168 16.9047V8.57135C14.168 8.24397 13.9001 7.97611 13.5727 7.97611Z" fill="#6C757D"/>
</svg>
