<svg width="20" height="18" viewBox="0 0 20 18" fill="none" xmlns="http://www.w3.org/2000/svg">
<g clip-path="url(#clip0_2318_17931)">
<path d="M9.99913 1.22217C7.19358 1.22217 4.94705 2.49995 3.31163 4.02078C1.68663 5.52772 0.599826 7.33328 0.0859375 8.57286C-0.0286458 8.84717 -0.0286458 9.15272 0.0859375 9.42703C0.599826 10.6666 1.68663 12.4722 3.31163 13.9791C4.94705 15.4999 7.19358 16.7777 9.99913 16.7777C12.8047 16.7777 15.0512 15.4999 16.6866 13.9791C18.3116 12.4687 19.3984 10.6666 19.9158 9.42703C20.0304 9.15272 20.0304 8.84717 19.9158 8.57286C19.3984 7.33328 18.3116 5.52772 16.6866 4.02078C15.0512 2.49995 12.8047 1.22217 9.99913 1.22217ZM4.99913 8.99995C4.99913 7.67386 5.52592 6.40209 6.4636 5.46441C7.40128 4.52673 8.67305 3.99995 9.99913 3.99995C11.3252 3.99995 12.597 4.52673 13.5347 5.46441C14.4723 6.40209 14.9991 7.67386 14.9991 8.99995C14.9991 10.326 14.4723 11.5978 13.5347 12.5355C12.597 13.4732 11.3252 13.9999 9.99913 13.9999C8.67305 13.9999 7.40128 13.4732 6.4636 12.5355C5.52592 11.5978 4.99913 10.326 4.99913 8.99995ZM9.99913 6.77772C9.99913 8.00342 9.0026 8.99995 7.77691 8.99995C7.53038 8.99995 7.29427 8.95828 7.07205 8.88536C6.88108 8.82286 6.65885 8.94092 6.6658 9.14231C6.67622 9.38189 6.71094 9.62147 6.77691 9.86106C7.2526 11.6388 9.08247 12.6944 10.8602 12.2187C12.638 11.743 13.6936 9.91314 13.2179 8.13536C12.8325 6.69439 11.5582 5.72564 10.1415 5.66661C9.94011 5.65967 9.82205 5.87842 9.88455 6.07286C9.95747 6.29508 9.99913 6.5312 9.99913 6.77772Z" fill="#6C757D"/>
</g>
<defs>
<clipPath id="clip0_2318_17931">
<rect width="20" height="17.7778" fill="white" transform="translate(0 0.111084)"/>
</clipPath>
</defs>
</svg>
