<svg width="20" height="20" viewBox="0 0 20 20" fill="none" xmlns="http://www.w3.org/2000/svg">
<path fill-rule="evenodd" clip-rule="evenodd" d="M20 10C20 15.5228 15.5228 20 10 20C4.47715 20 0 15.5228 0 10C0 4.47715 4.47715 0 10 0C15.5228 0 20 4.47715 20 10ZM4.84845 15.1516C4.45792 14.761 4.45792 14.1279 4.84845 13.7373L8.58579 10L4.84845 6.26266C4.45792 5.87214 4.45792 5.23897 4.84845 4.84845C5.23897 4.45792 5.87214 4.45792 6.26266 4.84845L10 8.58579L13.7373 4.84845C14.1279 4.45792 14.761 4.45792 15.1516 4.84845C15.5421 5.23897 15.5421 5.87214 15.1516 6.26266L11.4142 10L15.1516 13.7373C15.5421 14.1279 15.5421 14.761 15.1516 15.1516C14.761 15.5421 14.1279 15.5421 13.7373 15.1516L10 11.4142L6.26266 15.1516C5.87214 15.5421 5.23897 15.5421 4.84845 15.1516Z" fill="#E40000"/>
</svg>
