<svg width="512" height="512" version="1.1" xmlns="http://www.w3.org/2000/svg" desc="Created with imagetracer.js version 1.2.6" ><path fill="rgb(0,0,0)" stroke="rgb(0,0,0)" stroke-width="1" opacity="0.9411764705882353" d="M 64.5 117 L 65.5 119 L 64.5 117 Z " /><path fill="rgb(0,0,0)" stroke="rgb(0,0,0)" stroke-width="1" opacity="0.9411764705882353" d="M 425.5 153 L 426.5 155 L 425.5 153 Z " /><path fill="rgb(0,0,0)" stroke="rgb(0,0,0)" stroke-width="1" opacity="0.9411764705882353" d="M 429.5 156 L 430.5 158 L 429.5 156 Z " /><path fill="rgb(0,0,0)" stroke="rgb(0,0,0)" stroke-width="1" opacity="0.9411764705882353" d="M 433.5 159 L 434.5 161 L 433.5 159 Z " /><path fill="rgb(0,0,0)" stroke="rgb(0,0,0)" stroke-width="1" opacity="0.9411764705882353" d="M 438.5 163 L 439.5 165 L 438.5 163 Z " /><path fill="rgb(0,0,0)" stroke="rgb(0,0,0)" stroke-width="1" opacity="0.9411764705882353" d="M 72.5 164 L 71.5 166 L 72.5 164 Z " /><path fill="rgb(0,0,0)" stroke="rgb(0,0,0)" stroke-width="1" opacity="0.9411764705882353" d="M 444.5 168 L 445.5 170 L 444.5 168 Z " /><path fill="rgb(0,0,0)" stroke="rgb(0,0,0)" stroke-width="1" opacity="0.9411764705882353" d="M 66.5 169 L 65.5 171 L 66.5 169 Z " /><path fill="rgb(0,0,0)" stroke="rgb(0,0,0)" stroke-width="1" opacity="0.9411764705882353" d="M 452.5 175 L 454.5 178 L 452.5 175 Z " /><path fill="rgb(0,0,0)" stroke="rgb(0,0,0)" stroke-width="1" opacity="0.9411764705882353" d="M 58.5 176 L 55.5 180 L 58.5 176 Z " /><path fill="rgb(0,0,0)" stroke="rgb(0,0,0)" stroke-width="1" opacity="0.9411764705882353" d="M 329.5 176 L 335.5 183 L 329.5 176 Z " /><path fill="rgb(0,0,0)" stroke="rgb(0,0,0)" stroke-width="1" opacity="0.9411764705882353" d="M 38.5 196 L 35.5 200 L 38.5 196 Z " /><path fill="rgb(0,0,0)" stroke="rgb(0,0,0)" stroke-width="1" opacity="0.9411764705882353" d="M 473.5 196 L 476.5 200 L 473.5 196 Z " /><path fill="rgb(0,0,0)" stroke="rgb(0,0,0)" stroke-width="1" opacity="0.9411764705882353" d="M 302.5 204 L 307.5 210 L 302.5 204 Z " /><path fill="rgb(0,0,0)" stroke="rgb(0,0,0)" stroke-width="1" opacity="0.9411764705882353" d="M 29.5 206 L 28.5 208 L 29.5 206 Z " /><path fill="rgb(0,0,0)" stroke="rgb(0,0,0)" stroke-width="1" opacity="0.9411764705882353" d="M 482.5 206 L 483.5 208 L 482.5 206 Z " /><path fill="rgb(0,0,0)" stroke="rgb(0,0,0)" stroke-width="1" opacity="0.9411764705882353" d="M 157.5 211 L 188 240.5 L 158.5 212 L 157.5 211 Z " /><path fill="rgb(0,0,0)" stroke="rgb(0,0,0)" stroke-width="1" opacity="0.9411764705882353" d="M 24.5 212 L 23.5 214 L 24.5 212 Z " /><path fill="rgb(0,0,0)" stroke="rgb(0,0,0)" stroke-width="1" opacity="0.9411764705882353" d="M 487.5 212 L 488.5 214 L 487.5 212 Z " /><path fill="rgb(0,0,0)" stroke="rgb(0,0,0)" stroke-width="1" opacity="0.9411764705882353" d="M 17.5 221 L 16.5 223 L 17.5 221 Z " /><path fill="rgb(0,0,0)" stroke="rgb(0,0,0)" stroke-width="1" opacity="0.9411764705882353" d="M 494.5 221 L 495.5 223 L 494.5 221 Z " /><path fill="rgb(0,0,0)" stroke="rgb(0,0,0)" stroke-width="1" opacity="0.9411764705882353" d="M 498.5 285 L 497.5 287 L 498.5 285 Z " /><path fill="rgb(0,0,0)" stroke="rgb(0,0,0)" stroke-width="1" opacity="0.9411764705882353" d="M 16.5 289 L 17.5 291 L 16.5 289 Z " /><path fill="rgb(0,0,0)" stroke="rgb(0,0,0)" stroke-width="1" opacity="0.9411764705882353" d="M 495.5 289 L 494.5 291 L 495.5 289 Z " /><path fill="rgb(0,0,0)" stroke="rgb(0,0,0)" stroke-width="1" opacity="0.9411764705882353" d="M 23.5 298 L 24.5 300 L 23.5 298 Z " /><path fill="rgb(0,0,0)" stroke="rgb(0,0,0)" stroke-width="1" opacity="0.9411764705882353" d="M 488.5 298 L 487.5 300 L 488.5 298 Z " /><path fill="rgb(0,0,0)" stroke="rgb(0,0,0)" stroke-width="1" opacity="0.9411764705882353" d="M 204.5 302 L 209.5 308 L 204.5 302 Z " /><path fill="rgb(0,0,0)" stroke="rgb(0,0,0)" stroke-width="1" opacity="0.9411764705882353" d="M 28.5 304 L 29.5 306 L 28.5 304 Z " /><path fill="rgb(0,0,0)" stroke="rgb(0,0,0)" stroke-width="1" opacity="0.9411764705882353" d="M 483.5 304 L 482.5 306 L 483.5 304 Z " /><path fill="rgb(0,0,0)" stroke="rgb(0,0,0)" stroke-width="1" opacity="0.9411764705882353" d="M 35.5 312 L 38.5 316 L 35.5 312 Z " /><path fill="rgb(0,0,0)" stroke="rgb(0,0,0)" stroke-width="1" opacity="0.9411764705882353" d="M 476.5 312 L 473.5 316 L 476.5 312 Z " /><path fill="rgb(0,0,0)" stroke="rgb(0,0,0)" stroke-width="1" opacity="0.9411764705882353" d="M 171.5 323 L 172.5 325 L 171.5 323 Z " /><path fill="rgb(0,0,0)" stroke="rgb(0,0,0)" stroke-width="1" opacity="0.9411764705882353" d="M 271.5 324 L 301 354.5 L 300 354.5 L 271.5 324 Z " /><path fill="rgb(0,0,0)" stroke="rgb(0,0,0)" stroke-width="1" opacity="0.9411764705882353" d="M 177.5 330 L 179.5 333 L 177.5 330 Z " /><path fill="rgb(0,0,0)" stroke="rgb(0,0,0)" stroke-width="1" opacity="0.9411764705882353" d="M 57.5 334 L 59.5 337 L 57.5 334 Z " /><path fill="rgb(0,0,0)" stroke="rgb(0,0,0)" stroke-width="1" opacity="0.9411764705882353" d="M 454.5 334 L 452.5 337 L 454.5 334 Z " /><path fill="rgb(0,0,0)" stroke="rgb(0,0,0)" stroke-width="1" opacity="0.9411764705882353" d="M 66.5 342 L 67.5 344 L 66.5 342 Z " /><path fill="rgb(0,0,0)" stroke="rgb(0,0,0)" stroke-width="1" opacity="0.9411764705882353" d="M 445.5 342 L 444.5 344 L 445.5 342 Z " /><path fill="rgb(0,0,0)" stroke="rgb(0,0,0)" stroke-width="1" opacity="0.9411764705882353" d="M 72.5 347 L 73.5 349 L 72.5 347 Z " /><path fill="rgb(0,0,0)" stroke="rgb(0,0,0)" stroke-width="1" opacity="0.9411764705882353" d="M 77.5 351 L 78.5 353 L 77.5 351 Z " /><path fill="rgb(0,0,0)" stroke="rgb(0,0,0)" stroke-width="1" opacity="0.9411764705882353" d="M 81.5 354 L 82.5 356 L 81.5 354 Z " /><path fill="rgb(0,0,0)" stroke="rgb(0,0,0)" stroke-width="1" opacity="0.9411764705882353" d="M 430.5 354 L 429.5 356 L 430.5 354 Z " /><path fill="rgb(0,0,0)" stroke="rgb(0,0,0)" stroke-width="1" opacity="0.9411764705882353" d="M 85.5 357 L 86.5 359 L 85.5 357 Z " /><path fill="rgb(0,0,0)" stroke="rgb(0,0,0)" stroke-width="1" opacity="0.9411764705882353" d="M 347.5 400 L 394.5 448 L 347.5 400 Z " /><path fill="rgb(0,0,0)" stroke="rgb(0,0,0)" stroke-width="1" opacity="0.9411764705882353" d="M 238.5 414 L 241 414.5 L 238.5 415 L 238.5 414 Z " /><path fill="rgb(0,0,0)" stroke="rgb(0,0,0)" stroke-width="1" opacity="0.9411764705882353" d="M 270.5 414 L 273 414.5 L 270.5 415 L 270.5 414 Z " /><path fill="rgb(0,0,0)" stroke="rgb(0,0,0)" stroke-width="1" opacity="0.9411764705882353" d="M 421.5 443 L 420.5 445 L 421.5 443 Z " /><path fill="rgb(0,0,0)" stroke="rgb(0,0,0)" stroke-width="1" opacity="0.9411764705882353" d="M 404.5 451 L 408 451.5 L 404.5 452 L 404.5 451 Z " /><path fill="rgb(0,0,0)" stroke="rgb(0,0,0)" stroke-width="1" opacity="0" d="M 0 0 L 512 0 L 512 248.5 L 511 248.5 L 508 238.5 L 496 221.5 Q 477.2 196.8 454.5 176 Q 412.7 136.8 354.5 114 L 330.5 106 L 298.5 99 L 283.5 98 L 282.5 97 L 267.5 97 L 266.5 96 L 245.5 96 L 244.5 97 L 230.5 97 L 229.5 98 L 221.5 98 L 220.5 99 L 202.5 101 L 166 111 L 166 112.5 L 211.5 158 L 227.5 152 L 242.5 149 L 269.5 149 Q 316.3 157.3 340 188.5 Q 353.3 204.7 360 227.5 L 363 242.5 L 363 269.5 L 360 284.5 L 354 300.5 L 418.5 364 Q 450.6 342.6 476 314.5 L 504 279.5 L 510 269.5 L 511.5 263 L 512 512 L 0 512 L 0 264.5 L 1 264.5 L 4 273.5 L 23 299.5 L 58.5 337 Q 100 375.5 157.5 398 L 178.5 405 L 202.5 411 L 207.5 411 L 220.5 414 L 228.5 414 L 229.5 415 L 265.5 416 L 266.5 415 L 281.5 415 L 282.5 414 L 290.5 414 L 291.5 413 L 309.5 411 L 346.5 401 L 393.5 448 Q 398.5 453.5 410.5 452 Q 417.9 449.9 422 444.5 Q 426.8 439.3 425 427.5 L 422 421.5 L 90.5 90 Q 85.5 86 76.5 86 Q 66.5 88 62 95.5 L 60 99.5 L 59 106.5 L 60 111.5 L 64 118.5 L 93 147.5 L 93 149 Q 61.1 169.3 36 197.5 L 6 235.5 L 2 242.5 L 0.5 249 L 0 0 Z M 248 186 L 247 187 Q 241 185 242 189 L 324 270 L 325 270 L 326 265 L 326 248 L 322 232 Q 317 217 307 208 Q 297 196 281 190 L 265 186 L 248 186 Z " /><path fill="rgb(0,0,0)" stroke="rgb(0,0,0)" stroke-width="1" opacity="0" d="M 157 213 L 158.5 213 L 187 241.5 Q 188.2 246.3 186 247.5 L 186 264.5 L 188 274.5 L 193 287.5 L 206 306 L 219.5 316 L 231.5 322 L 247.5 326 L 264.5 326 Q 265.7 323.8 270.5 325 L 299 353.5 L 299 355 L 284.5 360 L 269.5 363 L 242.5 363 Q 195.9 354.6 172 323.5 Q 158.7 307.3 152 284.5 L 149 269.5 L 149 242.5 L 152 227.5 L 157 213 Z " /><path fill="rgb(0,0,0)" stroke="rgb(0,0,0)" stroke-width="1" opacity="1" d="M 75.5 87 Q 85.7 86.3 90.5 91 L 421 421.5 Q 424.8 426.2 425 434.5 Q 423.3 442.3 418.5 447 Q 413.5 453 400.5 451 L 396.5 449 L 347.5 400 L 344.5 400 L 323.5 407 L 292.5 413 L 270.5 414 L 269.5 415 L 241.5 415 L 240.5 414 L 228.5 414 L 227.5 413 L 212.5 412 L 188.5 407 L 162.5 399 L 142.5 391 Q 81.6 362.9 39 316.5 Q 20.4 296.6 5 273.5 L 1 263.5 L 0 255.5 L 3 242.5 L 12 228.5 Q 30.9 201.9 54.5 180 Q 72.6 162.6 94 148.5 L 66 119.5 Q 60 114.5 60 103.5 Q 61.8 94.3 68.5 90 L 75.5 87 Z M 157 211 L 152 225 L 148 245 L 148 268 L 153 291 Q 162 316 180 333 Q 182 332 181 335 L 199 348 L 212 355 L 229 361 L 245 364 L 268 364 Q 269 362 275 363 Q 290 360 301 355 L 301 354 L 272 324 Q 267 323 266 325 L 247 325 L 238 323 Q 223 319 214 311 Q 193 296 187 266 L 187 247 Q 189 245 188 241 L 159 211 L 157 211 Z " /><path fill="rgb(0,0,0)" stroke="rgb(0,0,0)" stroke-width="1" opacity="1" d="M 241.5 97 L 271.5 97 L 272.5 98 L 283.5 98 L 284.5 99 L 299.5 100 L 334.5 108 L 362.5 118 Q 428.1 146.4 473 195.5 Q 491.6 215.4 507 238.5 L 511 248.5 L 512 256.5 L 509 269.5 L 503 279.5 Q 482 309.5 455.5 334 Q 438.5 350.5 417.5 363 L 355 299.5 L 360 287.5 L 363 274.5 Q 361.5 269 364 267.5 L 364 244.5 L 359 221.5 L 350 201.5 Q 341.4 187.1 329.5 176 Q 312.5 160 287.5 152 L 267.5 148 L 243.5 148 L 224.5 152 L 211.5 157 L 167 112.5 L 168.5 111 L 201.5 102 L 219.5 100 L 220.5 99 L 227.5 99 L 228.5 98 L 240.5 98 L 241.5 97 Z " /><path fill="rgb(0,0,0)" stroke="rgb(0,0,0)" stroke-width="1" opacity="1" d="M 246.5 187 L 265.5 187 L 283.5 192 Q 300.3 199.7 311 213.5 Q 319.1 223.4 323 237.5 L 325 246.5 L 325 265.5 L 323.5 269 L 243.5 188 L 246.5 187 Z " /><path fill="rgb(0,0,0)" stroke="rgb(0,0,0)" stroke-width="1" opacity="0.3137254901960784" d="M 76.5 86 L 81 86.5 L 76.5 87 L 76.5 86 Z " /><path fill="rgb(0,0,0)" stroke="rgb(0,0,0)" stroke-width="1" opacity="0.3137254901960784" d="M 245.5 96 L 267 96.5 L 245.5 97 L 245.5 96 Z " /><path fill="rgb(0,0,0)" stroke="rgb(0,0,0)" stroke-width="1" opacity="0.3137254901960784" d="M 280.5 97 L 283 97.5 L 280.5 98 L 280.5 97 Z " /><path fill="rgb(0,0,0)" stroke="rgb(0,0,0)" stroke-width="1" opacity="0.3137254901960784" d="M 289.5 98 L 292 98.5 L 289.5 99 L 289.5 98 Z " /><path fill="rgb(0,0,0)" stroke="rgb(0,0,0)" stroke-width="1" opacity="0.3137254901960784" d="M 59.5 104 L 60 106.5 L 59 106.5 L 59.5 104 Z " /><path fill="rgb(0,0,0)" stroke="rgb(0,0,0)" stroke-width="1" opacity="0.3137254901960784" d="M 64.5 118 L 93.5 148 L 64.5 118 Z " /><path fill="rgb(0,0,0)" stroke="rgb(0,0,0)" stroke-width="1" opacity="0.3137254901960784" d="M 250.5 148 L 262 148.5 L 250.5 149 L 250.5 148 Z " /><path fill="rgb(0,0,0)" stroke="rgb(0,0,0)" stroke-width="1" opacity="0.3137254901960784" d="M 426.5 153 L 427.5 155 L 426.5 153 Z " /><path fill="rgb(0,0,0)" stroke="rgb(0,0,0)" stroke-width="1" opacity="0.3137254901960784" d="M 430.5 156 L 431.5 158 L 430.5 156 Z " /><path fill="rgb(0,0,0)" stroke="rgb(0,0,0)" stroke-width="1" opacity="0.3137254901960784" d="M 434.5 159 L 435.5 161 L 434.5 159 Z " /><path fill="rgb(0,0,0)" stroke="rgb(0,0,0)" stroke-width="1" opacity="0.3137254901960784" d="M 439.5 163 L 440.5 165 L 439.5 163 Z " /><path fill="rgb(0,0,0)" stroke="rgb(0,0,0)" stroke-width="1" opacity="0.3137254901960784" d="M 71.5 164 L 70.5 166 L 71.5 164 Z " /><path fill="rgb(0,0,0)" stroke="rgb(0,0,0)" stroke-width="1" opacity="0.3137254901960784" d="M 445.5 168 L 446.5 170 L 445.5 168 Z " /><path fill="rgb(0,0,0)" stroke="rgb(0,0,0)" stroke-width="1" opacity="0.3137254901960784" d="M 65.5 169 L 64.5 171 L 65.5 169 Z " /><path fill="rgb(0,0,0)" stroke="rgb(0,0,0)" stroke-width="1" opacity="0.3137254901960784" d="M 327.5 175 L 336.5 185 L 327.5 175 Z " /><path fill="rgb(0,0,0)" stroke="rgb(0,0,0)" stroke-width="1" opacity="0.3137254901960784" d="M 57.5 176 L 53.5 181 L 57.5 176 Z " /><path fill="rgb(0,0,0)" stroke="rgb(0,0,0)" stroke-width="1" opacity="0.3137254901960784" d="M 454.5 176 L 457.5 180 L 454.5 176 Z " /><path fill="rgb(0,0,0)" stroke="rgb(0,0,0)" stroke-width="1" opacity="0.3137254901960784" d="M 471.5 193 L 475.5 198 L 471.5 193 Z " /><path fill="rgb(0,0,0)" stroke="rgb(0,0,0)" stroke-width="1" opacity="0.3137254901960784" d="M 39.5 194 L 36.5 198 L 39.5 194 Z " /><path fill="rgb(0,0,0)" stroke="rgb(0,0,0)" stroke-width="1" opacity="0.3137254901960784" d="M 30.5 204 L 29.5 206 L 30.5 204 Z " /><path fill="rgb(0,0,0)" stroke="rgb(0,0,0)" stroke-width="1" opacity="0.3137254901960784" d="M 481.5 204 L 482.5 206 L 481.5 204 Z " /><path fill="rgb(0,0,0)" stroke="rgb(0,0,0)" stroke-width="1" opacity="0.3137254901960784" d="M 304.5 205 L 306.5 208 L 304.5 205 Z " /><path fill="rgb(0,0,0)" stroke="rgb(0,0,0)" stroke-width="1" opacity="0.3137254901960784" d="M 158.5 212 L 188 242.5 L 187 242.5 L 158.5 212 Z " /><path fill="rgb(0,0,0)" stroke="rgb(0,0,0)" stroke-width="1" opacity="0.3137254901960784" d="M 17.5 220 L 16.5 222 L 17.5 220 Z " /><path fill="rgb(0,0,0)" stroke="rgb(0,0,0)" stroke-width="1" opacity="0.3137254901960784" d="M 494.5 220 L 495.5 222 L 494.5 220 Z " /><path fill="rgb(0,0,0)" stroke="rgb(0,0,0)" stroke-width="1" opacity="0.3137254901960784" d="M 14.5 224 L 13.5 226 L 14.5 224 Z " /><path fill="rgb(0,0,0)" stroke="rgb(0,0,0)" stroke-width="1" opacity="0.3137254901960784" d="M 325.5 247 L 326 249.5 L 325 249.5 L 325.5 247 Z " /><path fill="rgb(0,0,0)" stroke="rgb(0,0,0)" stroke-width="1" opacity="0.3137254901960784" d="M 148.5 250 L 149 260.5 L 148 260.5 L 148.5 250 Z " /><path fill="rgb(0,0,0)" stroke="rgb(0,0,0)" stroke-width="1" opacity="0.3137254901960784" d="M 363.5 250 L 364 261.5 L 363 261.5 L 363.5 250 Z " /><path fill="rgb(0,0,0)" stroke="rgb(0,0,0)" stroke-width="1" opacity="0.3137254901960784" d="M 13.5 286 L 14.5 288 L 13.5 286 Z " /><path fill="rgb(0,0,0)" stroke="rgb(0,0,0)" stroke-width="1" opacity="0.3137254901960784" d="M 498.5 286 L 497.5 288 L 498.5 286 Z " /><path fill="rgb(0,0,0)" stroke="rgb(0,0,0)" stroke-width="1" opacity="0.3137254901960784" d="M 495.5 290 L 494.5 292 L 495.5 290 Z " /><path fill="rgb(0,0,0)" stroke="rgb(0,0,0)" stroke-width="1" opacity="0.3137254901960784" d="M 23.5 299 L 24.5 301 L 23.5 299 Z " /><path fill="rgb(0,0,0)" stroke="rgb(0,0,0)" stroke-width="1" opacity="0.3137254901960784" d="M 488.5 299 L 487.5 301 L 488.5 299 Z " /><path fill="rgb(0,0,0)" stroke="rgb(0,0,0)" stroke-width="1" opacity="0.3137254901960784" d="M 28.5 305 L 30.5 308 L 28.5 305 Z " /><path fill="rgb(0,0,0)" stroke="rgb(0,0,0)" stroke-width="1" opacity="0.3137254901960784" d="M 483.5 305 L 481.5 308 L 483.5 305 Z " /><path fill="rgb(0,0,0)" stroke="rgb(0,0,0)" stroke-width="1" opacity="0.3137254901960784" d="M 35.5 313 L 39.5 318 L 35.5 313 Z " /><path fill="rgb(0,0,0)" stroke="rgb(0,0,0)" stroke-width="1" opacity="0.3137254901960784" d="M 475.5 314 L 472.5 318 L 475.5 314 Z " /><path fill="rgb(0,0,0)" stroke="rgb(0,0,0)" stroke-width="1" opacity="0.3137254901960784" d="M 269.5 324 L 300 353.5 L 270.5 325 L 269.5 324 Z " /><path fill="rgb(0,0,0)" stroke="rgb(0,0,0)" stroke-width="1" opacity="0.3137254901960784" d="M 247.5 325 L 250 325.5 L 247.5 326 L 247.5 325 Z " /><path fill="rgb(0,0,0)" stroke="rgb(0,0,0)" stroke-width="1" opacity="0.3137254901960784" d="M 262.5 325 L 265 325.5 L 262.5 326 L 262.5 325 Z " /><path fill="rgb(0,0,0)" stroke="rgb(0,0,0)" stroke-width="1" opacity="0.3137254901960784" d="M 177.5 329 L 183.5 336 L 177.5 329 Z " /><path fill="rgb(0,0,0)" stroke="rgb(0,0,0)" stroke-width="1" opacity="0.3137254901960784" d="M 458.5 331 L 454.5 336 L 458.5 331 Z " /><path fill="rgb(0,0,0)" stroke="rgb(0,0,0)" stroke-width="1" opacity="0.3137254901960784" d="M 54.5 332 L 58.5 337 L 54.5 332 Z " /><path fill="rgb(0,0,0)" stroke="rgb(0,0,0)" stroke-width="1" opacity="0.3137254901960784" d="M 447.5 341 L 446.5 343 L 447.5 341 Z " /><path fill="rgb(0,0,0)" stroke="rgb(0,0,0)" stroke-width="1" opacity="0.3137254901960784" d="M 65.5 342 L 66.5 344 L 65.5 342 Z " /><path fill="rgb(0,0,0)" stroke="rgb(0,0,0)" stroke-width="1" opacity="0.3137254901960784" d="M 80.5 354 L 81.5 356 L 80.5 354 Z " /><path fill="rgb(0,0,0)" stroke="rgb(0,0,0)" stroke-width="1" opacity="0.3137254901960784" d="M 431.5 354 L 430.5 356 L 431.5 354 Z " /><path fill="rgb(0,0,0)" stroke="rgb(0,0,0)" stroke-width="1" opacity="0.3137254901960784" d="M 84.5 357 L 85.5 359 L 84.5 357 Z " /><path fill="rgb(0,0,0)" stroke="rgb(0,0,0)" stroke-width="1" opacity="0.3137254901960784" d="M 251.5 363 L 262 363.5 L 251.5 364 L 251.5 363 Z " /><path fill="rgb(0,0,0)" stroke="rgb(0,0,0)" stroke-width="1" opacity="0.3137254901960784" d="M 346.5 400 L 393.5 448 L 346.5 400 Z " /><path fill="rgb(0,0,0)" stroke="rgb(0,0,0)" stroke-width="1" opacity="0.3137254901960784" d="M 220.5 413 L 223 413.5 L 220.5 414 L 220.5 413 Z " /><path fill="rgb(0,0,0)" stroke="rgb(0,0,0)" stroke-width="1" opacity="0.3137254901960784" d="M 229.5 414 L 233 414.5 L 229.5 415 L 229.5 414 Z " /><path fill="rgb(0,0,0)" stroke="rgb(0,0,0)" stroke-width="1" opacity="0.3137254901960784" d="M 279.5 414 L 282 414.5 L 279.5 415 L 279.5 414 Z " /><path fill="rgb(0,0,0)" stroke="rgb(0,0,0)" stroke-width="1" opacity="0.3137254901960784" d="M 245.5 415 L 266 415.5 L 245.5 416 L 245.5 415 Z " /><path fill="rgb(0,0,0)" stroke="rgb(0,0,0)" stroke-width="1" opacity="0.3137254901960784" d="M 421.5 444 L 418.5 448 L 421.5 444 Z " /><path fill="rgb(0,0,0)" stroke="rgb(0,0,0)" stroke-width="1" opacity="0.5098039215686274" d="M 91.5 91 L 420.5 421 L 91.5 91 Z " /><path fill="rgb(0,0,0)" stroke="rgb(0,0,0)" stroke-width="1" opacity="0.5098039215686274" d="M 232.5 97 L 236 97.5 L 232.5 98 L 232.5 97 Z " /><path fill="rgb(0,0,0)" stroke="rgb(0,0,0)" stroke-width="1" opacity="0.5098039215686274" d="M 277.5 97 L 280 97.5 L 277.5 98 L 277.5 97 Z " /><path fill="rgb(0,0,0)" stroke="rgb(0,0,0)" stroke-width="1" opacity="0.5098039215686274" d="M 247.5 148 L 250 148.5 L 247.5 149 L 247.5 148 Z " /><path fill="rgb(0,0,0)" stroke="rgb(0,0,0)" stroke-width="1" opacity="0.5098039215686274" d="M 262.5 148 L 265 148.5 L 262.5 149 L 262.5 148 Z " /><path fill="rgb(0,0,0)" stroke="rgb(0,0,0)" stroke-width="1" opacity="0.5098039215686274" d="M 447.5 170 L 448.5 172 L 447.5 170 Z " /><path fill="rgb(0,0,0)" stroke="rgb(0,0,0)" stroke-width="1" opacity="0.5098039215686274" d="M 63.5 171 L 62.5 173 L 63.5 171 Z " /><path fill="rgb(0,0,0)" stroke="rgb(0,0,0)" stroke-width="1" opacity="0.5098039215686274" d="M 458.5 180 L 470.5 193 L 458.5 180 Z " /><path fill="rgb(0,0,0)" stroke="rgb(0,0,0)" stroke-width="1" opacity="0.5098039215686274" d="M 52.5 181 L 40.5 194 L 52.5 181 Z " /><path fill="rgb(0,0,0)" stroke="rgb(0,0,0)" stroke-width="1" opacity="0.5098039215686274" d="M 249.5 186 L 252 186.5 L 249.5 187 L 249.5 186 Z " /><path fill="rgb(0,0,0)" stroke="rgb(0,0,0)" stroke-width="1" opacity="0.5098039215686274" d="M 260.5 186 L 263 186.5 L 260.5 187 L 260.5 186 Z " /><path fill="rgb(0,0,0)" stroke="rgb(0,0,0)" stroke-width="1" opacity="0.5098039215686274" d="M 32.5 202 L 31.5 204 L 32.5 202 Z " /><path fill="rgb(0,0,0)" stroke="rgb(0,0,0)" stroke-width="1" opacity="0.5098039215686274" d="M 479.5 202 L 480.5 204 L 479.5 202 Z " /><path fill="rgb(0,0,0)" stroke="rgb(0,0,0)" stroke-width="1" opacity="0.5098039215686274" d="M 26.5 209 L 25.5 211 L 26.5 209 Z " /><path fill="rgb(0,0,0)" stroke="rgb(0,0,0)" stroke-width="1" opacity="0.5098039215686274" d="M 485.5 209 L 486.5 211 L 485.5 209 Z " /><path fill="rgb(0,0,0)" stroke="rgb(0,0,0)" stroke-width="1" opacity="0.5098039215686274" d="M 363.5 247 L 364 249.5 L 363 249.5 L 363.5 247 Z " /><path fill="rgb(0,0,0)" stroke="rgb(0,0,0)" stroke-width="1" opacity="0.5098039215686274" d="M 186.5 249 L 187 251.5 L 186 251.5 L 186.5 249 Z " /><path fill="rgb(0,0,0)" stroke="rgb(0,0,0)" stroke-width="1" opacity="0.5098039215686274" d="M 186.5 260 L 187 262.5 L 186 262.5 L 186.5 260 Z " /><path fill="rgb(0,0,0)" stroke="rgb(0,0,0)" stroke-width="1" opacity="0.5098039215686274" d="M 325.5 260 L 326 262.5 L 325 262.5 L 325.5 260 Z " /><path fill="rgb(0,0,0)" stroke="rgb(0,0,0)" stroke-width="1" opacity="0.5098039215686274" d="M 148.5 261 L 149 264.5 L 148 264.5 L 148.5 261 Z " /><path fill="rgb(0,0,0)" stroke="rgb(0,0,0)" stroke-width="1" opacity="0.5098039215686274" d="M 363.5 262 L 364 264.5 L 363 264.5 L 363.5 262 Z " /><path fill="rgb(0,0,0)" stroke="rgb(0,0,0)" stroke-width="1" opacity="0.5098039215686274" d="M 25.5 301 L 26.5 303 L 25.5 301 Z " /><path fill="rgb(0,0,0)" stroke="rgb(0,0,0)" stroke-width="1" opacity="0.5098039215686274" d="M 40.5 318 L 53.5 332 L 40.5 318 Z " /><path fill="rgb(0,0,0)" stroke="rgb(0,0,0)" stroke-width="1" opacity="0.5098039215686274" d="M 471.5 318 L 459.5 331 L 471.5 318 Z " /><path fill="rgb(0,0,0)" stroke="rgb(0,0,0)" stroke-width="1" opacity="0.5098039215686274" d="M 259.5 325 L 262 325.5 L 259.5 326 L 259.5 325 Z " /><path fill="rgb(0,0,0)" stroke="rgb(0,0,0)" stroke-width="1" opacity="0.5098039215686274" d="M 174.5 326 L 176.5 329 L 174.5 326 Z " /><path fill="rgb(0,0,0)" stroke="rgb(0,0,0)" stroke-width="1" opacity="0.5098039215686274" d="M 63.5 340 L 64.5 342 L 63.5 340 Z " /><path fill="rgb(0,0,0)" stroke="rgb(0,0,0)" stroke-width="1" opacity="0.5098039215686274" d="M 442.5 345 L 441.5 347 L 442.5 345 Z " /><path fill="rgb(0,0,0)" stroke="rgb(0,0,0)" stroke-width="1" opacity="0.5098039215686274" d="M 248.5 363 L 251 363.5 L 248.5 364 L 248.5 363 Z " /><path fill="rgb(0,0,0)" stroke="rgb(0,0,0)" stroke-width="1" opacity="0.5098039215686274" d="M 276.5 414 L 279 414.5 L 276.5 415 L 276.5 414 Z " /><path fill="rgb(0,0,0)" stroke="rgb(0,0,0)" stroke-width="1" opacity="0.7137254901960784" d="M 66.5 91 L 64.5 94 L 66.5 91 Z " /><path fill="rgb(0,0,0)" stroke="rgb(0,0,0)" stroke-width="1" opacity="0.7137254901960784" d="M 236.5 97 L 239 97.5 L 236.5 98 L 236.5 97 Z " /><path fill="rgb(0,0,0)" stroke="rgb(0,0,0)" stroke-width="1" opacity="0.7137254901960784" d="M 274.5 97 L 277 97.5 L 274.5 98 L 274.5 97 Z " /><path fill="rgb(0,0,0)" stroke="rgb(0,0,0)" stroke-width="1" opacity="0.7137254901960784" d="M 166.5 112 L 211.5 158 L 166.5 112 Z " /><path fill="rgb(0,0,0)" stroke="rgb(0,0,0)" stroke-width="1" opacity="0.7137254901960784" d="M 74.5 162 L 73.5 164 L 74.5 162 Z " /><path fill="rgb(0,0,0)" stroke="rgb(0,0,0)" stroke-width="1" opacity="0.7137254901960784" d="M 442.5 166 L 443.5 168 L 442.5 166 Z " /><path fill="rgb(0,0,0)" stroke="rgb(0,0,0)" stroke-width="1" opacity="0.7137254901960784" d="M 68.5 167 L 67.5 169 L 68.5 167 Z " /><path fill="rgb(0,0,0)" stroke="rgb(0,0,0)" stroke-width="1" opacity="0.7137254901960784" d="M 324.5 172 L 325.5 174 L 324.5 172 Z " /><path fill="rgb(0,0,0)" stroke="rgb(0,0,0)" stroke-width="1" opacity="0.7137254901960784" d="M 449.5 172 L 451.5 175 L 449.5 172 Z " /><path fill="rgb(0,0,0)" stroke="rgb(0,0,0)" stroke-width="1" opacity="0.7137254901960784" d="M 61.5 173 L 59.5 176 L 61.5 173 Z " /><path fill="rgb(0,0,0)" stroke="rgb(0,0,0)" stroke-width="1" opacity="0.7137254901960784" d="M 252.5 186 L 260 186.5 L 252.5 187 L 252.5 186 Z " /><path fill="rgb(0,0,0)" stroke="rgb(0,0,0)" stroke-width="1" opacity="0.7137254901960784" d="M 338.5 186 L 339.5 188 L 338.5 186 Z " /><path fill="rgb(0,0,0)" stroke="rgb(0,0,0)" stroke-width="1" opacity="0.7137254901960784" d="M 242.5 188 L 323.5 270 L 242.5 188 Z " /><path fill="rgb(0,0,0)" stroke="rgb(0,0,0)" stroke-width="1" opacity="0.7137254901960784" d="M 34.5 200 L 33.5 202 L 34.5 200 Z " /><path fill="rgb(0,0,0)" stroke="rgb(0,0,0)" stroke-width="1" opacity="0.7137254901960784" d="M 477.5 200 L 478.5 202 L 477.5 200 Z " /><path fill="rgb(0,0,0)" stroke="rgb(0,0,0)" stroke-width="1" opacity="0.7137254901960784" d="M 300.5 202 L 301.5 204 L 300.5 202 Z " /><path fill="rgb(0,0,0)" stroke="rgb(0,0,0)" stroke-width="1" opacity="0.7137254901960784" d="M 308.5 210 L 309.5 212 L 308.5 210 Z " /><path fill="rgb(0,0,0)" stroke="rgb(0,0,0)" stroke-width="1" opacity="0.7137254901960784" d="M 148.5 245 L 149 247.5 L 148 247.5 L 148.5 245 Z " /><path fill="rgb(0,0,0)" stroke="rgb(0,0,0)" stroke-width="1" opacity="0.7137254901960784" d="M 186.5 252 L 187 259.5 L 186 259.5 L 186.5 252 Z " /><path fill="rgb(0,0,0)" stroke="rgb(0,0,0)" stroke-width="1" opacity="0.7137254901960784" d="M 325.5 252 L 326 259.5 L 325 259.5 L 325.5 252 Z " /><path fill="rgb(0,0,0)" stroke="rgb(0,0,0)" stroke-width="1" opacity="0.7137254901960784" d="M 18.5 292 L 19.5 294 L 18.5 292 Z " /><path fill="rgb(0,0,0)" stroke="rgb(0,0,0)" stroke-width="1" opacity="0.7137254901960784" d="M 493.5 292 L 492.5 294 L 493.5 292 Z " /><path fill="rgb(0,0,0)" stroke="rgb(0,0,0)" stroke-width="1" opacity="0.7137254901960784" d="M 202.5 300 L 203.5 302 L 202.5 300 Z " /><path fill="rgb(0,0,0)" stroke="rgb(0,0,0)" stroke-width="1" opacity="0.7137254901960784" d="M 354.5 300 L 419 363.5 L 417.5 364 L 354.5 300 Z " /><path fill="rgb(0,0,0)" stroke="rgb(0,0,0)" stroke-width="1" opacity="0.7137254901960784" d="M 485.5 302 L 484.5 304 L 485.5 302 Z " /><path fill="rgb(0,0,0)" stroke="rgb(0,0,0)" stroke-width="1" opacity="0.7137254901960784" d="M 210.5 308 L 211.5 310 L 210.5 308 Z " /><path fill="rgb(0,0,0)" stroke="rgb(0,0,0)" stroke-width="1" opacity="0.7137254901960784" d="M 32.5 309 L 34.5 312 L 32.5 309 Z " /><path fill="rgb(0,0,0)" stroke="rgb(0,0,0)" stroke-width="1" opacity="0.7137254901960784" d="M 479.5 309 L 477.5 312 L 479.5 309 Z " /><path fill="rgb(0,0,0)" stroke="rgb(0,0,0)" stroke-width="1" opacity="0.7137254901960784" d="M 252.5 325 L 259 325.5 L 252.5 326 L 252.5 325 Z " /><path fill="rgb(0,0,0)" stroke="rgb(0,0,0)" stroke-width="1" opacity="0.7137254901960784" d="M 60.5 337 L 62.5 340 L 60.5 337 Z " /><path fill="rgb(0,0,0)" stroke="rgb(0,0,0)" stroke-width="1" opacity="0.7137254901960784" d="M 185.5 337 L 187.5 340 L 185.5 337 Z " /><path fill="rgb(0,0,0)" stroke="rgb(0,0,0)" stroke-width="1" opacity="0.7137254901960784" d="M 451.5 337 L 449.5 340 L 451.5 337 Z " /><path fill="rgb(0,0,0)" stroke="rgb(0,0,0)" stroke-width="1" opacity="0.7137254901960784" d="M 68.5 344 L 69.5 346 L 68.5 344 Z " /><path fill="rgb(0,0,0)" stroke="rgb(0,0,0)" stroke-width="1" opacity="0.7137254901960784" d="M 438.5 348 L 437.5 350 L 438.5 348 Z " /><path fill="rgb(0,0,0)" stroke="rgb(0,0,0)" stroke-width="1" opacity="0.7137254901960784" d="M 264.5 363 L 267 363.5 L 264.5 364 L 264.5 363 Z " /><path fill="rgb(0,0,0)" stroke="rgb(0,0,0)" stroke-width="1" opacity="0.7137254901960784" d="M 235.5 414 L 238 414.5 L 235.5 415 L 235.5 414 Z " /><path fill="rgb(0,0,0)" stroke="rgb(0,0,0)" stroke-width="1" opacity="0.7137254901960784" d="M 273.5 414 L 276 414.5 L 273.5 415 L 273.5 414 Z " /></svg>