<svg width="14" height="15" viewBox="0 0 14 15" fill="none" xmlns="http://www.w3.org/2000/svg">
<path fill-rule="evenodd" clip-rule="evenodd" d="M9.68208 11.2458C8.66576 12.0361 7.38866 12.5067 6.00167 12.5067C2.68704 12.5067 0 9.81891 0 6.50335C0 3.18779 2.68704 0.5 6.00167 0.5C9.31631 0.5 12.0033 3.18779 12.0033 6.50335C12.0033 7.89059 11.533 9.16794 10.743 10.1845L13.7799 13.2186C14.0731 13.5115 14.0734 13.9867 13.7806 14.2799C13.4878 14.5731 13.0128 14.5734 12.7196 14.2805L9.68208 11.2458ZM10.5029 6.50335C10.5029 8.99002 8.48765 11.0059 6.00167 11.0059C3.5157 11.0059 1.50042 8.99002 1.50042 6.50335C1.50042 4.01668 3.5157 2.00084 6.00167 2.00084C8.48765 2.00084 10.5029 4.01668 10.5029 6.50335Z" fill="#868FA0"/>
</svg>
